<?xml version="1.0" encoding="utf-8"?>
<!-- Generator: Adobe Illustrator 16.0.0, SVG Export Plug-In . SVG Version: 6.00 Build 0)  -->
<!DOCTYPE svg PUBLIC "-//W3C//DTD SVG 1.1//EN" "http://www.w3.org/Graphics/SVG/1.1/DTD/svg11.dtd">
<svg version="1.1" id="Layer_1" xmlns="http://www.w3.org/2000/svg" xmlns:xlink="http://www.w3.org/1999/xlink" x="0px" y="0px"
	 width="85px" height="85px" viewBox="0 0 85 85" enable-background="new 0 0 85 85" xml:space="preserve">
<g>
	<g>
		<path fill="#FFFFFF" stroke="#FFFFFF" stroke-width="3" d="M10.521,71.368V14.68h2.437v56.688H10.521z"/>
		<path fill="#FFFFFF" stroke="#FFFFFF" stroke-width="3" d="M43.333,71.693H10.521v-2.436h32.811
			C43.333,69.258,43.333,71.693,43.333,71.693z"/>
	</g>
	<rect x="10.684" y="14.517" fill="#FFFFFF" stroke="#FFFFFF" stroke-width="3" width="32.809" height="2.437"/>
</g>
<rect x="51.614" y="69.583" fill="#FFFFFF" stroke="#FFFFFF" stroke-width="3" width="1.951" height="1.942"/>
<path fill="#FFFFFF" stroke="#FFFFFF" stroke-width="3" d="M43.006,38.719h-1.95v-1.948h1.95V38.719z"/>
<rect x="62.013" y="69.583" fill="#FFFFFF" stroke="#FFFFFF" stroke-width="3" width="1.949" height="1.942"/>
<path fill="#FFFFFF" stroke="#FFFFFF" stroke-width="3" d="M43.006,27.674h-1.95v-1.949h1.95V27.674z"/>
<rect x="72.571" y="69.583" fill="#FFFFFF" stroke="#FFFFFF" stroke-width="3" width="1.95" height="1.942"/>
<rect x="51.614" y="14.844" fill="#FFFFFF" stroke="#FFFFFF" stroke-width="3" width="1.951" height="1.946"/>
<rect x="62.013" y="14.844" fill="#FFFFFF" stroke="#FFFFFF" stroke-width="3" width="1.949" height="1.946"/>
<rect x="72.571" y="14.844" fill="#FFFFFF" stroke="#FFFFFF" stroke-width="3" width="1.95" height="1.946"/>
<rect x="72.571" y="58.698" fill="#FFFFFF" stroke="#FFFFFF" stroke-width="3" width="1.95" height="1.95"/>
<rect x="72.571" y="47.655" fill="#FFFFFF" stroke="#FFFFFF" stroke-width="3" width="1.95" height="1.943"/>
<rect x="72.571" y="36.771" fill="#FFFFFF" stroke="#FFFFFF" stroke-width="3" width="1.95" height="1.948"/>
<rect x="72.571" y="25.725" fill="#FFFFFF" stroke="#FFFFFF" stroke-width="3" width="1.95" height="1.949"/>
<rect x="41.22" y="47.655" fill="#FFFFFF" stroke="#FFFFFF" stroke-width="3" width="1.952" height="1.943"/>
<rect x="41.22" y="58.698" fill="#FFFFFF" stroke="#FFFFFF" stroke-width="3" width="1.952" height="1.95"/>
</svg>
